<svg width="600" height="263" viewBox="0 0 600 263" fill="none" xmlns="http://www.w3.org/2000/svg">
<path d="M316.484 213.633L302.648 249.824H277.449L332.491 108.169H351.239L407.622 249.824H380.82L366.559 213.633H316.484ZM359.032 194.154C359.032 194.154 344.387 151.581 342.072 143.386H341.379C339.293 151.581 323.509 194.154 323.509 194.154H359.032Z" fill="#071C2C"/>
<path d="M488.575 188.02H442.622V228.426H495.178V249.824H416.594V108.169H495.971L488.575 130.183H442.622V166.894H488.575V188.02Z" fill="#071C2C"/>
<path d="M592.605 115.392V139.159C592.605 139.159 576.499 128.599 561.972 128.599C547.444 128.599 539.262 132.56 539.262 144.971C539.262 157.381 567.784 169.798 572.537 172.701C577.292 175.604 600.002 186.436 600.002 212.316C600.002 238.195 572.532 251.93 556.16 251.93C539.788 251.93 521.565 248.494 507.57 238.461L517.337 220.504C517.337 220.504 535.034 231.33 549.029 231.33C563.03 231.33 573.064 225.518 573.064 213.634C573.064 201.75 561.179 197.002 546.126 188.021C531.072 179.039 513.116 173.493 513.116 144.705C513.116 115.921 542.165 107.469 562.764 107.469C579.402 107.469 592.605 115.392 592.605 115.392Z" fill="#071C2C"/>
<path d="M252.23 103.597C242.31 61.2056 211.319 26.9344 170.878 12.4612C179.782 19.0036 193.83 32.6228 193.83 53.4637C193.83 82.0016 156.039 102.562 146.629 109.636C139.06 118.184 132.824 128.706 132.824 140.219C132.824 169.534 165.704 183.003 181.946 183.003C198.187 183.003 237.802 172.307 248.894 134.277C252.089 123.32 252.812 112.896 252.23 103.597ZM170.838 12.4473C170.527 12.3357 170.212 12.2384 169.9 12.1301L169.913 12.1505C170.219 12.2569 170.532 12.3405 170.838 12.4473Z" fill="#00548B"/>
<path d="M148.375 108.391C149.702 107.47 151.332 106.385 153.158 105.161C151.323 106.39 149.706 107.467 148.375 108.391ZM156.472 257.378C159.349 256.722 162.195 255.985 164.993 255.131C162.187 255.985 159.335 256.715 156.452 257.372L156.472 257.378ZM146.825 109.5C147.258 109.18 147.727 108.841 148.263 108.468C147.73 108.839 147.26 109.179 146.825 109.5ZM146.639 109.635C146.635 109.638 146.632 109.642 146.629 109.647C146.693 109.599 146.761 109.548 146.825 109.5C146.771 109.542 146.693 109.595 146.639 109.635ZM252.244 103.662C252.818 112.945 252.092 123.344 248.904 134.276C237.812 172.306 198.197 183.002 181.956 183.002C165.714 183.002 132.834 169.533 132.834 140.218C132.834 128.711 139.064 118.192 146.629 109.647C145.991 110.127 145.465 110.552 145.114 110.904C139.568 116.45 117.873 138.857 124.118 165.572C131.249 196.075 180.371 203.998 180.371 228.162C180.371 242.349 172.058 250.631 165.181 255.082C217.544 239.093 255.637 190.417 255.637 132.822C255.637 122.782 254.443 113.03 252.244 103.662ZM252.155 103.273C252.186 103.403 252.212 103.533 252.244 103.662C252.242 103.64 252.242 103.618 252.24 103.597C252.215 103.488 252.181 103.383 252.155 103.273ZM249.02 92.4428C250.202 95.9941 251.279 99.5933 252.155 103.273C251.279 99.5933 250.263 95.9663 249.079 92.415L249.02 92.4428Z" fill="#071C2C"/>
<path d="M90.486 255.086C93.5937 256.033 96.7579 256.844 99.9594 257.562L99.9577 257.544C96.7579 256.832 93.5921 256.033 90.486 255.086ZM183.529 36.8188C178.645 70.6071 128.567 68.3541 99.571 72.8728C69.0679 77.6265 34.2073 90.3031 16.7774 129.125C5.55637 154.119 11.9013 181.553 17.8446 197.943C33.8903 224.98 59.602 245.604 90.237 255.012C72.7076 244.168 36.5839 216.512 36.5839 172.701C36.5839 172.701 29.4988 109.866 97.5902 93.8683C163.35 78.4188 181.969 70.0997 183.554 39.9928C183.611 38.9111 183.595 37.8558 183.529 36.8188Z" fill="#4E5A30"/>
<path d="M26.1814 210.305V210.249C25.8096 209.76 25.4354 209.277 25.0719 208.788C25.4428 209.29 25.8022 209.803 26.1814 210.305ZM155.485 8.05318C146.575 6.07529 137.327 5 127.82 5C57.2272 5 0 62.2274 0 132.821C0 156.609 6.51338 178.861 17.8324 197.931C11.8908 181.541 5.55241 154.114 16.7702 129.126C34.2 90.3041 69.0607 77.6275 99.5638 72.8738C128.56 68.3552 178.636 70.6081 183.522 36.8215C182.591 22.3129 169.938 12.2499 155.485 8.05318ZM167.818 11.4188C166.545 10.9995 165.255 10.6126 163.965 10.2321C165.293 10.6217 166.597 11.0673 167.908 11.4993L167.818 11.4188Z" fill="#77BC1F"/>
</svg>
